<svg xmlns="http://www.w3.org/2000/svg" width="512" height="512" viewBox="0 0 512 512">
  <rect width="512" height="512" rx="112" fill="#161922"/>
  <path
    d="M128 176a24 24 0 0 1 24-24h72l28 28h132a24 24 0 0 1 24 24v8H128v-36z"
    fill="#3d4f8f"
    stroke="#8fa4e8"
    stroke-width="4"
    stroke-linejoin="round"
  />
  <path
    d="M112 212h288a24 24 0 0 1 24 24v120a24 24 0 0 1-24 24H112a24 24 0 0 1-24-24V236a24 24 0 0 1 24-24z"
    fill="#5a72d6"
    stroke="#a8baff"
    stroke-width="4"
    stroke-linejoin="round"
  />
</svg>
